<?xml version="1.0" encoding="utf-8"?>
<!-- Generator: Adobe Illustrator 15.0.0, SVG Export Plug-In . SVG Version: 6.00 Build 0)  -->
<!DOCTYPE svg PUBLIC "-//W3C//DTD SVG 1.1//EN" "http://www.w3.org/Graphics/SVG/1.1/DTD/svg11.dtd">
<svg version="1.1" id="Layer_1" xmlns="http://www.w3.org/2000/svg" xmlns:xlink="http://www.w3.org/1999/xlink" x="0px" y="0px"
	 width="32px" height="32px" viewBox="0 0 32 32" enable-background="new 0 0 32 32" xml:space="preserve">
<g>
	<path fill="#86CCF1" d="M21.335,19.823c-1.219-0.208-2.887-1.39-2.887-1.903v-1.295c0-0.484,0.652-1.389,0.932-2.225
		c0.025-0.076,0.195,0.016,0.357-0.184c0.307-0.38,0.354-0.955,0.42-1.215c0.113-0.413-0.387-0.432-0.387-0.432
		s0.375-2.161,0.043-3.525c-0.447-1.86-2.857-2.797-3.801-2.797c-0.944,0-3.35,0.937-3.801,2.797
		c-0.332,1.364,0.051,3.525,0.051,3.525s-0.482,0.019-0.371,0.432c0.07,0.26,0.148,0.835,0.459,1.215
		c0.16,0.199,0.261,0.107,0.285,0.184c0.279,0.836,0.936,1.74,0.936,2.225v1.295c0,0.514-1.672,1.695-2.891,1.903
		c-1.564,0.269-2.34,1.351-1.973,4.048c0.182,1.348,3.74,1.928,7.262,1.879c3.527,0.049,7.14-0.531,7.32-1.879
		C23.657,21.173,22.902,20.091,21.335,19.823z"/>
</g>
</svg>
